<?xml version="1.0" standalone="no"?>
<!DOCTYPE svg PUBLIC "-//W3C//DTD SVG 20010904//EN"
 "http://www.w3.org/TR/2001/REC-SVG-20010904/DTD/svg10.dtd">
<svg version="1.0" xmlns="http://www.w3.org/2000/svg"
 width="662.000000pt" height="377.000000pt" viewBox="0 0 662.000000 377.000000"
 preserveAspectRatio="xMidYMid meet">

<g transform="translate(0.000000,377.000000) scale(0.100000,-0.100000)"
fill="#000000" stroke="none">
<path d="M3180 3590 c-155 -20 -326 -126 -408 -254 -87 -136 -125 -290 -103
-419 14 -84 41 -167 54 -167 5 0 6 8 2 18 -29 73 -28 275 1 350 52 133 129
242 219 312 26 20 117 64 180 87 69 25 274 25 324 0 19 -9 41 -17 50 -18 9 0
30 -9 46 -20 17 -10 37 -22 45 -26 26 -12 94 -66 134 -108 35 -36 37 -37 23
-10 -25 47 -102 122 -166 162 -132 81 -258 110 -401 93z"/>
<path d="M3266 3435 c-7 -20 4 -47 18 -42 17 6 20 57 3 57 -8 0 -17 -7 -21
-15z"/>
<path d="M3220 3365 c13 -14 38 -27 56 -31 53 -10 122 36 79 53 -10 3 -26 1
-36 -5 -23 -15 -76 -16 -84 -2 -3 6 -13 10 -22 10 -13 0 -12 -5 7 -25z"/>
<path d="M3133 3342 c-24 -2 -33 -8 -33 -22 0 -26 12 -31 49 -20 41 12 60 4
68 -28 5 -20 0 -31 -27 -55 -25 -23 -30 -33 -24 -48 9 -20 9 -20 31 1 12 11
26 20 30 20 16 0 43 -58 43 -92 -1 -52 -23 -73 -76 -72 -41 1 -50 6 -84 44
-24 27 -41 58 -45 82 -4 21 -11 41 -17 44 -16 10 3 -68 28 -116 33 -60 82 -93
140 -93 59 0 87 26 87 80 0 21 -3 48 -7 60 -4 12 -1 27 6 34 7 8 25 37 40 64
23 43 31 50 60 53 28 2 37 -2 49 -24 20 -38 18 -128 -5 -152 -20 -23 -58 -32
-80 -20 -23 13 -21 -14 2 -35 29 -27 67 -21 96 14 51 60 28 211 -40 255 -37
25 -65 7 -89 -56 -24 -62 -37 -74 -70 -66 -22 6 -25 12 -25 54 0 68 -38 101
-107 94z"/>
<path d="M3850 3293 c0 -15 29 -49 30 -35 0 7 -7 20 -15 28 -8 9 -15 11 -15 7z"/>
<path d="M4273 3063 c-2 -157 1 -193 12 -193 30 0 35 342 5 371 -13 14 -15 -6
-17 -178z"/>
<path d="M3880 3235 c0 -16 35 -95 41 -95 8 0 -19 82 -32 95 -5 5 -9 5 -9 0z"/>
<path d="M4110 3168 c-30 -17 -56 -34 -58 -39 -2 -5 -10 -9 -18 -9 -7 0 -36
-21 -63 -47 l-49 -48 -6 -104 c-4 -57 -14 -122 -21 -145 -8 -23 -15 -44 -15
-48 0 -14 20 -8 40 12 15 15 22 45 32 132 l13 112 60 48 c33 27 88 63 123 80
72 36 76 40 67 68 -9 28 -39 24 -105 -12z"/>
<path d="M2280 3141 c0 -52 19 -131 46 -187 33 -69 42 -65 14 7 -11 30 -20 78
-20 106 l0 53 33 -6 c44 -7 106 -24 142 -39 17 -7 40 -16 53 -20 12 -3 22 -11
22 -16 0 -5 7 -9 15 -9 8 0 15 9 15 20 0 14 -19 28 -75 55 -41 19 -81 35 -88
35 -8 0 -31 7 -50 15 -20 8 -52 15 -72 15 -32 0 -35 -3 -35 -29z"/>
<path d="M3170 2810 c-84 -8 -211 -46 -286 -86 -79 -42 -109 -59 -114 -64 -3
-3 -21 -17 -40 -30 -92 -63 -215 -210 -271 -323 -17 -34 -35 -70 -40 -79 -5
-10 -9 -23 -9 -29 0 -6 -6 -25 -14 -42 -33 -79 -49 -177 -48 -315 0 -76 6
-159 13 -185 11 -46 12 -47 30 -31 11 9 19 27 19 40 0 13 5 26 10 29 6 3 10
27 10 51 l0 46 30 -30 c16 -17 43 -33 59 -37 15 -3 62 -23 102 -44 98 -50 103
-71 22 -101 -32 -12 -72 -30 -89 -41 -17 -10 -37 -19 -44 -19 -19 0 -80 -49
-80 -63 0 -25 18 -38 60 -42 43 -4 84 -30 74 -46 -3 -5 1 -9 9 -9 8 0 18 -7
21 -16 6 -15 4 -15 -11 -3 -17 13 -17 13 -3 -5 15 -19 38 -74 47 -114 4 -18 2
-23 -10 -20 -9 2 -16 -1 -16 -7 0 -5 9 -9 19 -7 13 2 20 -2 20 -12 0 -9 5 -16
10 -16 6 0 10 -7 10 -15 0 -8 5 -15 10 -15 6 0 10 -7 10 -15 0 -8 7 -15 15
-15 8 0 15 -5 15 -11 0 -5 4 -8 9 -4 5 3 16 -4 24 -15 7 -11 17 -17 20 -13 4
3 7 1 7 -5 0 -7 3 -11 8 -10 4 1 25 -9 47 -23 44 -29 165 -79 189 -79 8 0 37
14 65 31 27 17 64 34 82 38 27 5 34 13 43 45 14 50 36 60 36 17 0 -17 5 -31
11 -31 6 0 5 -6 -3 -15 -28 -31 -38 -44 -38 -52 -1 -4 -17 -20 -36 -35 l-36
-27 39 -10 c24 -7 67 -7 118 -2 49 5 67 9 45 11 -19 2 -40 4 -47 4 -7 1 -18 8
-25 16 -11 12 -11 12 3 2 14 -10 17 -9 21 5 6 28 4 123 -4 120 -3 -1 -16 11
-29 26 -18 24 -19 31 -8 38 9 5 17 3 22 -6 10 -19 33 -19 41 0 3 10 -1 15 -12
16 -9 0 -2 5 15 10 18 5 43 23 55 39 27 37 34 37 42 5 4 -16 13 -25 26 -25 17
0 17 3 6 24 -7 14 -11 50 -10 80 2 44 -1 54 -12 49 -11 -4 -14 6 -14 45 0 61
10 113 20 107 4 -3 4 11 0 31 -5 20 -11 73 -15 119 -7 76 -9 82 -29 80 -11 -1
-13 0 -4 2 9 2 24 16 33 29 13 20 22 24 41 20 13 -4 24 -3 25 1 0 5 3 35 5 68
3 33 11 63 17 67 37 23 58 -8 48 -72 -4 -25 -4 -58 -1 -75 5 -27 7 -25 13 19
10 73 8 154 -4 179 -6 12 -25 35 -41 50 -37 34 -31 43 16 27 20 -6 44 -9 53
-6 28 9 42 -6 47 -48 5 -42 8 -47 28 -50 7 -1 19 -5 26 -9 6 -5 16 -6 21 -3 5
4 7 -3 4 -14 -3 -11 0 -20 6 -20 6 0 13 11 17 24 3 14 17 33 30 43 24 17 33
43 15 43 -5 0 -11 9 -14 20 -4 17 -2 18 14 9 15 -7 19 -6 19 6 0 8 -4 15 -10
15 -5 0 -10 7 -10 15 0 20 27 19 38 -1 12 -22 35 -8 29 17 -3 11 -1 17 4 14
10 -7 49 16 49 28 0 5 -7 7 -15 3 -8 -3 -15 -1 -15 4 0 6 -5 10 -11 10 -5 0
-7 -5 -3 -12 5 -7 3 -8 -5 -4 -7 5 -10 14 -7 22 3 8 0 11 -10 7 -20 -7 -18 7
4 23 9 7 17 25 17 40 0 15 6 28 13 30 7 1 8 0 2 -3 -12 -6 -13 -23 -1 -23 14
0 20 25 10 41 -6 11 -11 11 -21 1 -22 -22 -48 -15 -48 13 0 34 28 75 50 75 16
0 35 25 32 42 -1 3 6 5 16 3 9 -2 22 -4 28 -4 7 -1 14 -10 17 -21 3 -11 11
-20 19 -20 24 0 98 61 98 81 0 10 -4 19 -8 19 -4 0 -15 12 -25 28 -26 43 -97
114 -167 169 -104 81 -175 119 -286 153 -38 12 -76 25 -84 30 -23 11 -244 19
-330 10z m658 -285 c-2 -13 -12 -21 -30 -23 -26 -3 -39 -26 -19 -34 5 -1 12
-20 16 -40 l7 -38 -41 0 c-30 0 -41 4 -41 16 0 8 -4 12 -10 9 -18 -11 2 29 26
53 13 13 25 29 25 37 1 8 2 18 4 23 1 4 5 20 10 35 l7 28 25 -23 c13 -12 23
-31 21 -43z m9 -60 c0 -8 -4 -12 -9 -9 -5 3 -6 10 -3 15 9 13 12 11 12 -6z
m50 -67 c-3 -8 -6 -5 -6 6 -1 11 2 17 5 13 3 -3 4 -12 1 -19z m-594 -164 c-4
-10 -9 -12 -15 -6 -12 12 -1 35 12 27 5 -3 6 -13 3 -21z m117 6 c-8 -5 -7 -9
4 -13 9 -4 15 -1 13 6 -1 7 13 12 39 12 35 1 40 -2 40 -21 0 -18 -3 -21 -17
-13 -20 10 -34 -4 -25 -26 3 -8 1 -15 -4 -15 -6 0 -10 6 -10 13 0 6 -5 4 -11
-5 -5 -10 -15 -18 -21 -18 -7 0 -6 5 1 14 10 12 8 13 -11 9 -13 -4 -26 -11
-30 -17 -5 -8 -11 -7 -20 2 -18 18 -32 14 -17 -5 7 -10 1 -7 -14 6 -22 20 -29
22 -42 11 -11 -10 -18 -10 -29 -1 -8 7 -17 8 -20 3 -3 -5 -17 -12 -31 -14 -21
-4 -23 -3 -14 9 10 11 8 12 -7 6 -16 -6 -17 -4 -7 9 7 8 9 19 5 23 -4 5 -1 5
6 1 6 -4 12 -3 12 2 0 12 70 4 87 -10 9 -7 14 -6 19 6 4 12 15 15 40 12 33 -4
56 8 32 17 -7 2 0 4 16 4 16 0 23 -3 16 -7z m134 -21 c-3 -5 -10 -7 -15 -3 -5
3 -7 10 -3 15 3 5 10 7 15 3 5 -3 7 -10 3 -15z m-60 -25 c3 -8 2 -12 -4 -9 -6
3 -10 10 -10 16 0 14 7 11 14 -7z m-271 -97 c3 -8 -8 -17 -29 -23 l-33 -11 22
23 c25 27 33 29 40 11z m227 -61 c0 -16 45 -66 59 -66 11 0 31 -32 31 -49 0
-6 -5 -11 -12 -11 -6 0 -20 -7 -30 -17 -14 -13 -23 -14 -42 -5 -17 7 -35 8
-58 1 -54 -15 -68 -12 -68 17 0 17 6 28 20 31 24 6 26 21 5 29 -12 5 -13 9 -4
20 6 8 17 14 23 13 22 -3 51 3 39 8 -10 3 -10 9 0 24 14 22 37 25 37 5z m-144
-78 c-9 -13 -29 -51 -46 -85 -16 -34 -34 -65 -40 -68 -6 -4 -8 -10 -5 -15 3
-5 0 -12 -6 -16 -7 -4 -9 -3 -6 3 4 6 -4 13 -19 16 -18 3 -22 1 -15 -6 6 -6
11 -18 11 -26 0 -9 -11 4 -24 29 -17 32 -30 44 -43 42 -15 -2 -16 -1 -3 8 11
9 12 13 3 17 -7 2 -13 9 -13 14 0 6 4 7 10 4 6 -4 7 5 4 23 -6 27 -3 31 27 38
19 4 43 7 54 6 11 -1 43 6 70 17 28 11 52 20 54 21 2 0 -4 -10 -13 -22z m-2
-120 c-4 -6 0 -14 7 -19 10 -6 7 -8 -9 -6 -21 1 -30 25 -16 40 10 10 25 -3 18
-15z m63 -45 c19 -17 16 -23 -9 -19 -13 1 -24 11 -26 20 -4 18 15 18 35 -1z
m36 2 c-3 -9 -8 -14 -10 -11 -3 3 -2 9 2 15 9 16 15 13 8 -4z m-53 -192 c16 4
20 2 16 -8 -3 -8 0 -17 6 -21 7 -4 8 -3 4 4 -4 7 -2 12 3 12 6 0 11 -9 11 -20
0 -14 -5 -18 -17 -13 -28 10 -83 54 -83 66 0 5 9 2 20 -8 12 -10 28 -15 40
-12z m-802 -150 c15 -10 35 -25 45 -33 10 -8 23 -15 29 -15 6 0 12 -8 14 -18
1 -9 13 -26 26 -36 12 -11 20 -22 16 -26 -4 -4 -33 20 -65 54 -32 33 -63 61
-68 61 -6 0 -19 7 -29 15 -28 21 -1 19 32 -2z m127 -51 c-3 -3 -11 0 -18 7 -9
10 -8 11 6 5 10 -3 15 -9 12 -12z m33 -73 c-3 -8 -7 -3 -11 10 -4 17 -3 21 5
13 5 -5 8 -16 6 -23z m672 -10 c0 -5 -4 -9 -10 -9 -5 0 -10 7 -10 16 0 8 5 12
10 9 6 -3 10 -10 10 -16z m-690 -34 c0 -8 -2 -15 -4 -15 -2 0 -6 7 -10 15 -3
8 -1 15 4 15 6 0 10 -7 10 -15z m56 -17 c4 -7 3 -8 -4 -4 -7 4 -12 2 -12 -5 0
-7 -3 -10 -6 -6 -6 5 3 27 11 27 2 0 7 -5 11 -12z m-36 -43 c0 -5 -5 -3 -10 5
-5 8 -10 20 -10 25 0 6 5 3 10 -5 5 -8 10 -19 10 -25z m570 -254 c0 -32 -6
-24 -14 19 -4 25 -3 31 4 20 5 -8 10 -26 10 -39z"/>
<path d="M4205 2795 c-22 -8 -48 -15 -58 -15 -24 0 -128 -52 -172 -86 -40 -30
-43 -44 -15 -69 17 -16 21 -16 35 -2 8 9 24 19 35 22 11 3 20 10 20 14 0 4 17
13 38 20 20 7 51 19 67 26 83 35 206 43 305 22 144 -32 313 -158 375 -281 16
-32 31 -54 33 -48 1 5 -6 25 -16 43 -10 19 -22 46 -26 62 -16 65 -188 213
-306 264 -95 40 -243 54 -315 28z"/>
<path d="M2145 2779 c-75 -8 -108 -18 -195 -63 -73 -37 -160 -103 -160 -122 0
-4 -8 -14 -17 -23 -24 -22 -63 -78 -63 -90 0 -5 -6 -16 -13 -23 -7 -7 -25 -50
-40 -94 -22 -67 -27 -99 -27 -180 0 -55 5 -117 11 -139 15 -58 70 -185 80
-185 5 0 9 -6 9 -14 0 -7 8 -20 18 -27 15 -12 16 -12 6 1 -27 34 -74 194 -79
268 -11 141 18 252 101 377 112 169 275 255 485 255 61 0 111 -5 131 -14 18
-7 51 -19 73 -26 22 -7 59 -26 83 -41 46 -31 58 -34 66 -20 7 10 -38 55 -75
76 -138 77 -239 99 -394 84z"/>
<path d="M4439 2482 c-85 -57 -109 -97 -109 -183 0 -55 14 -93 50 -131 l25
-27 38 55 c21 30 34 54 30 54 -4 0 -21 -21 -38 -45 -16 -25 -33 -45 -37 -45
-16 0 -51 80 -55 124 l-4 49 52 -6 c68 -8 84 -24 33 -32 -61 -10 -64 -16 -6
-11 28 3 52 3 52 1 0 -2 -20 -16 -45 -31 -25 -14 -44 -28 -41 -31 2 -2 22 7
45 21 22 14 44 26 49 26 15 0 11 -50 -8 -94 -15 -36 -23 -44 -37 -39 -16 6
-16 5 -4 -10 23 -29 35 -19 55 42 30 93 37 95 34 7 l-3 -78 39 5 c49 7 114 51
140 97 16 27 20 52 20 109 -1 47 -5 76 -12 79 -7 2 -12 9 -12 16 0 16 -47 60
-87 80 -43 22 -131 21 -164 -2z m81 -52 c0 -56 -6 -63 -20 -25 -23 61 -23 75
-1 75 19 0 21 -6 21 -50z m44 44 c13 -5 13 -10 4 -27 -6 -11 -14 -32 -19 -46
-6 -20 -7 -15 -8 27 -1 28 1 52 3 52 2 0 11 -3 20 -6z m-90 -50 c23 -56 16
-66 -15 -22 -13 18 -27 35 -32 36 -8 4 11 32 22 32 3 0 14 -21 25 -46z m139
30 c13 -4 10 -14 -16 -50 -17 -24 -33 -42 -35 -39 -4 4 28 95 34 95 1 0 9 -3
17 -6z m-170 -56 c20 -23 34 -44 32 -46 -2 -2 -23 7 -47 20 -23 13 -45 24 -46
25 -7 3 9 43 17 43 5 0 25 -19 44 -42z m215 9 c2 -10 -3 -17 -12 -17 -9 0 -16
-4 -16 -8 0 -5 -12 -14 -26 -21 l-25 -11 28 40 c29 41 46 46 51 17z m-238 -44
c27 -15 48 -29 46 -31 -3 -2 -29 -1 -60 3 -50 7 -56 10 -56 31 0 30 9 30 70
-3z m270 -2 c0 -15 -10 -20 -46 -26 -59 -9 -64 -2 -17 23 50 25 63 26 63 3z
m7 -46 c9 -24 -1 -27 -54 -19 l-48 8 40 12 c53 17 55 16 62 -1z m-9 -62 c2
-13 -1 -23 -7 -23 -12 0 -81 40 -81 47 0 2 19 3 43 1 35 -2 43 -7 45 -25z
m-57 -18 c36 -27 44 -48 19 -52 -8 -2 -28 15 -43 37 -33 46 -25 51 24 15z
m-45 -12 c10 -16 24 -34 31 -42 17 -16 12 -35 -10 -39 -11 -2 -18 6 -22 25 -4
15 -12 39 -18 52 -19 38 -21 0 -3 -44 21 -49 20 -55 -7 -55 -22 0 -23 4 -22
53 1 80 19 98 51 50z"/>
<path d="M4925 2463 c8 -15 15 -35 15 -44 0 -9 7 -33 15 -52 21 -51 21 -288 0
-354 -18 -56 -74 -172 -92 -191 -7 -7 -13 -18 -13 -23 0 -5 -39 -47 -87 -94
-85 -83 -86 -85 -68 -105 18 -19 18 -19 43 3 43 38 113 111 137 142 29 37 88
157 104 210 29 98 27 271 -4 410 -9 37 -44 113 -55 120 -5 3 -3 -7 5 -22z"/>
<path d="M2010 2350 l0 -70 -65 0 -65 0 0 -35 0 -35 65 0 65 0 0 -120 0 -120
30 0 30 0 0 120 0 119 68 3 67 3 0 30 0 30 -68 3 -67 3 0 69 0 70 -30 0 -30 0
0 -70z"/>
<path d="M4212 2294 c5 -11 36 -82 47 -109 5 -11 17 -54 27 -95 17 -71 21
-208 11 -455 -2 -34 1 -40 18 -40 15 0 21 9 27 40 17 95 3 368 -22 415 -4 9
-11 30 -15 49 -4 18 -13 44 -21 59 -8 15 -14 31 -14 36 0 16 -41 95 -52 102
-6 4 -9 3 -6 -2z"/>
<path d="M3875 2150 c3 -5 8 -10 11 -10 2 0 4 5 4 10 0 6 -5 10 -11 10 -5 0
-7 -4 -4 -10z"/>
<path d="M4480 2110 c0 -5 5 -10 11 -10 5 0 7 5 4 10 -3 6 -8 10 -11 10 -2 0
-4 -4 -4 -10z"/>
<path d="M3630 1849 c0 -6 -7 -17 -15 -25 -8 -8 -12 -21 -8 -30 3 -8 0 -35 -7
-60 -11 -40 -11 -47 4 -62 15 -15 16 -14 16 19 0 33 18 113 35 152 5 12 3 17
-9 17 -9 0 -16 -5 -16 -11z"/>
<path d="M1680 1775 c0 -2 6 -10 13 -17 6 -7 30 -35 51 -62 50 -61 76 -86 93
-86 7 0 -18 32 -57 71 -38 39 -70 75 -70 79 0 4 -7 10 -15 14 -8 3 -15 4 -15
1z"/>
<path d="M3728 1685 c-3 -3 -4 -19 -2 -36 3 -21 0 -28 -8 -23 -7 4 -8 3 -4 -5
12 -19 23 -4 24 34 1 35 0 40 -10 30z"/>
<path d="M3540 1650 c0 -5 5 -10 10 -10 6 0 10 5 10 10 0 6 -4 10 -10 10 -5 0
-10 -4 -10 -10z"/>
<path d="M3470 1643 c0 -5 5 -15 10 -23 8 -12 10 -11 10 8 0 12 -4 22 -10 22
-5 0 -10 -3 -10 -7z"/>
<path d="M3675 1583 c-6 -16 -8 -117 -4 -168 2 -21 39 -66 39 -47 0 6 -4 14
-10 17 -12 7 -14 95 -2 95 12 0 8 113 -4 117 -6 2 -15 -4 -19 -14z"/>
<path d="M3600 1575 c0 -8 7 -15 15 -15 8 0 15 4 15 9 0 5 -7 11 -15 15 -9 3
-15 0 -15 -9z"/>
<path d="M1876 1536 c-26 -25 -51 -56 -57 -68 -5 -13 -19 -39 -29 -58 -28 -51
-26 -80 5 -80 15 0 25 6 25 14 0 8 6 21 13 28 6 7 21 29 32 49 11 20 33 51 48
69 29 33 29 33 60 18 76 -39 187 -57 206 -35 8 10 9 17 1 22 -5 3 -10 3 -10
-1 0 -3 -6 -2 -12 4 -7 5 -33 13 -58 17 -54 8 -162 45 -171 58 -4 5 -28 -11
-53 -37z"/>
<path d="M4555 1566 c-37 -17 -163 -46 -199 -46 -14 0 -26 -5 -26 -11 0 -19
33 -38 65 -39 38 0 166 26 199 41 21 10 30 7 69 -19 24 -17 69 -55 99 -84 30
-29 62 -59 71 -67 16 -13 16 -12 3 14 -19 37 -114 135 -131 135 -3 0 -16 11
-29 25 -13 14 -26 25 -30 25 -4 0 -16 9 -28 20 -26 24 -24 23 -63 6z"/>
<path d="M3480 1560 c0 -5 5 -10 11 -10 5 0 7 5 4 10 -3 6 -8 10 -11 10 -2 0
-4 -4 -4 -10z"/>
<path d="M3800 1511 c0 -16 -4 -40 -9 -53 -5 -13 -11 -64 -14 -114 -5 -75 -12
-104 -40 -166 -30 -66 -40 -78 -71 -89 -20 -7 -36 -16 -36 -20 0 -4 -16 -13
-35 -20 -19 -7 -35 -17 -35 -22 0 -5 -8 -3 -17 4 -11 10 -14 10 -9 2 4 -7 3
-13 -2 -13 -5 0 -22 25 -38 55 -28 56 -54 88 -54 66 0 -16 91 -193 109 -211
11 -11 15 -12 19 -2 2 6 12 12 23 12 10 0 45 14 76 32 32 17 70 38 86 45 30
16 33 23 15 41 -9 9 -9 12 1 12 7 0 10 4 7 8 -3 5 1 9 9 9 11 0 12 -3 3 -14
-20 -25 6 -36 32 -13 13 11 28 20 33 20 17 0 187 179 187 196 0 49 -115 214
-150 214 -4 0 -10 7 -14 15 -3 8 -14 15 -25 15 -11 0 -23 5 -26 10 -12 20 -25
10 -25 -19z m189 -206 c0 -17 -2 -16 -11 5 -6 14 -12 34 -14 45 -3 16 -1 15
11 -5 8 -14 14 -34 14 -45z m19 -47 c2 -9 -4 -18 -13 -22 -9 -3 -13 -2 -10 3
3 5 1 12 -5 16 -13 8 -2 27 13 22 7 -2 13 -11 15 -19z m-258 -206 c0 -4 -9
-13 -20 -20 -19 -12 -20 -11 -8 8 13 20 28 27 28 12z"/>
<path d="M2247 1450 c-25 -22 -56 -57 -68 -78 -13 -20 -29 -43 -36 -50 -7 -7
-13 -19 -13 -26 0 -6 -5 -17 -12 -24 -6 -6 -13 -20 -14 -29 -2 -9 -9 -33 -17
-53 -22 -53 -41 -172 -34 -221 12 -96 27 -156 47 -197 11 -23 25 -53 30 -67 5
-14 14 -25 20 -25 6 0 4 13 -4 33 -53 120 -66 294 -31 398 20 58 67 162 88
192 18 28 99 110 125 129 18 12 22 22 17 37 -10 33 -47 25 -98 -19z"/>
<path d="M4236 1438 c-8 -13 -25 -45 -37 -72 -23 -53 -108 -176 -121 -176 -4
0 -8 -5 -8 -11 0 -13 -168 -179 -181 -179 -5 0 -17 -8 -27 -17 -10 -10 -33
-26 -52 -35 -19 -10 -42 -22 -50 -27 -14 -9 -85 -41 -135 -61 -53 -21 -131
-40 -165 -40 -48 0 -100 -18 -100 -35 0 -23 42 -111 47 -98 2 7 0 21 -6 31
-15 28 3 39 69 47 53 6 153 29 195 45 56 21 202 96 215 110 3 3 21 17 40 30
19 13 45 34 57 47 12 13 27 23 33 23 5 0 10 7 10 15 0 8 7 15 15 15 8 0 15 4
15 8 0 5 16 26 36 46 59 61 97 116 144 213 25 51 47 92 50 92 7 1 92 -80 119
-115 23 -28 23 -28 16 -4 -10 32 -113 150 -131 150 -8 0 -14 5 -14 10 0 18
-19 11 -34 -12z"/>
<path d="M2467 1393 c6 -15 33 -18 33 -3 0 7 8 7 23 -1 17 -9 20 -9 11 1 -17
17 -73 20 -67 3z"/>
<path d="M2470 1360 c0 -5 9 -8 20 -7 21 1 18 10 -5 13 -8 1 -15 -2 -15 -6z"/>
<path d="M4937 1318 c5 -24 0 -29 -48 -51 -97 -45 -133 -56 -222 -70 -49 -8
-93 -19 -99 -25 -6 -6 -6 -30 1 -68 23 -123 5 -284 -44 -399 -23 -52 -95 -162
-134 -201 -97 -101 -190 -153 -347 -193 -52 -14 -241 -14 -249 -1 -3 6 -21 10
-38 10 -31 0 -164 55 -197 82 -47 37 -60 40 -80 16 -10 -13 -21 -36 -24 -53
-8 -40 -70 -159 -107 -207 -31 -39 -56 -47 -77 -26 -23 23 -20 2 4 -30 44 -55
79 -39 146 68 16 26 58 129 75 185 12 37 38 43 66 17 56 -50 158 -93 268 -111
302 -50 587 101 716 379 48 105 56 159 51 334 -3 86 -4 156 -2 156 1 0 47 9
101 20 91 18 203 53 252 79 27 15 27 57 2 90 l-19 25 5 -26z"/>
<path d="M2500 1321 c0 -6 4 -13 10 -16 6 -3 7 1 4 9 -7 18 -14 21 -14 7z"/>
<path d="M4501 1293 c7 -12 15 -20 18 -17 3 2 -3 12 -13 22 -17 16 -18 16 -5
-5z"/>
<path d="M2520 1286 c0 -2 8 -10 18 -17 15 -13 16 -12 3 4 -13 16 -21 21 -21
13z"/>
<path d="M1700 1259 c1 -33 19 -42 111 -50 109 -10 199 -5 210 13 15 24 -8 29
-137 32 -71 1 -141 6 -156 10 -21 6 -28 5 -28 -5z"/>
<path d="M2440 1261 c0 -5 5 -13 10 -16 6 -3 10 -2 10 4 0 5 -4 13 -10 16 -5
3 -10 2 -10 -4z"/>
<path d="M2480 1203 c0 -5 9 -19 20 -31 11 -12 20 -24 20 -27 0 -4 37 -45 83
-91 124 -127 246 -204 412 -257 101 -33 184 -42 192 -21 9 24 -8 33 -92 48
-96 17 -277 78 -303 104 -7 6 -20 12 -28 12 -8 0 -14 5 -14 10 0 6 -5 10 -10
10 -12 0 -63 35 -96 65 -95 89 -123 116 -151 149 -18 21 -33 34 -33 29z"/>
<path d="M2406 947 c-75 -46 -118 -139 -96 -209 27 -93 87 -138 184 -138 63 0
65 1 117 50 29 27 50 53 46 56 -4 4 -18 -4 -32 -18 -49 -49 -162 -44 -211 9
-58 63 -57 171 3 229 34 33 28 45 -11 21z"/>
<path d="M4060 923 c0 -44 -25 -89 -34 -63 -3 8 -7 31 -8 50 -5 55 -32 46 -38
-13 -5 -48 -22 -67 -28 -31 -7 38 -22 38 -22 0 0 -33 -2 -37 -20 -31 -11 4
-20 2 -20 -4 0 -6 5 -11 10 -11 6 0 10 -4 10 -10 0 -5 -7 -10 -15 -10 -19 0
-19 -14 1 -31 9 -8 13 -21 10 -35 -8 -31 6 -34 150 -34 108 0 126 2 131 17 4
9 1 19 -5 21 -8 2 -5 13 9 33 11 16 16 29 10 29 -6 0 -11 11 -11 25 0 19 -4
23 -17 18 -13 -5 -15 -3 -9 13 18 42 17 51 -1 56 -25 7 -43 -1 -43 -18 0 -8
-4 -14 -10 -14 -5 0 -10 -7 -10 -15 0 -8 -7 -15 -15 -15 -12 0 -13 4 -5 19 14
28 12 60 -5 77 -13 14 -15 11 -15 -23z"/>
<path d="M3470 938 c0 -10 -5 -18 -11 -18 -5 0 -7 5 -3 12 5 7 3 8 -5 3 -7 -4
-9 -11 -4 -15 10 -10 73 -1 73 11 0 5 -7 6 -16 2 -9 -3 -20 0 -25 8 -7 11 -9
11 -9 -3z"/>
<path d="M2545 878 c5 -18 2 -27 -9 -31 -25 -10 -19 -27 9 -27 14 0 25 -5 25
-12 0 -6 7 -4 18 5 10 10 24 17 30 17 7 0 12 5 12 10 0 6 -7 10 -15 10 -10 0
-15 10 -15 26 0 22 -2 25 -15 14 -12 -10 -18 -10 -31 1 -13 11 -14 9 -9 -13z"/>
<path d="M3263 731 c-3 -12 -9 -21 -14 -21 -5 0 -9 -7 -9 -16 0 -15 -31 -61
-82 -122 -31 -37 -37 -86 -13 -118 14 -18 14 -18 15 6 0 15 17 44 40 70 50 57
103 158 98 190 -4 31 -28 38 -35 11z"/>
<path d="M3360 583 c0 -5 11 -21 24 -36 14 -16 27 -34 29 -40 2 -7 8 -9 12 -5
4 4 -6 25 -21 47 -27 38 -44 51 -44 34z"/>
<path d="M2136 558 c19 -30 110 -128 119 -128 3 0 17 -10 31 -23 30 -28 129
-78 199 -102 68 -22 234 -31 321 -16 65 11 235 83 242 102 2 5 10 9 18 9 17 0
18 21 2 42 -12 15 -17 15 -53 -7 -90 -54 -162 -81 -266 -100 -79 -14 -96 -14
-190 0 -57 9 -117 22 -134 29 -90 41 -148 72 -152 84 -3 6 -9 12 -15 12 -5 0
-33 25 -63 55 -49 51 -76 71 -59 43z"/>
<path d="M3160 418 c0 -19 40 -81 47 -74 3 3 -1 14 -10 24 -10 10 -17 26 -17
35 0 9 -4 19 -10 22 -5 3 -10 0 -10 -7z"/>
<path d="M3220 311 c0 -6 4 -13 10 -16 6 -3 7 1 4 9 -7 18 -14 21 -14 7z"/>
<path d="M3221 173 c7 -12 15 -20 18 -17 3 2 -3 12 -13 22 -17 16 -18 16 -5
-5z"/>
</g>
</svg>
